<mxfile host="app.diagrams.net" modified="2020-04-14T02:54:06.444Z" agent="5.0 (Macintosh; Intel Mac OS X 10_15_1) AppleWebKit/537.36 (KHTML, like Gecko) Chrome/81.0.4044.92 Safari/537.36" etag="lZQ3o4BCV_Bz_3lcPe9h" version="12.9.11" type="github">
  <diagram id="C5RBs43oDa-KdzZeNtuy" name="Page-1">
    <mxGraphModel dx="1186" dy="663" grid="0" gridSize="10" guides="1" tooltips="1" connect="1" arrows="1" fold="1" page="0" pageScale="1" pageWidth="827" pageHeight="1169" math="0" shadow="0">
      <root>
        <mxCell id="WIyWlLk6GJQsqaUBKTNV-0" />
        <mxCell id="WIyWlLk6GJQsqaUBKTNV-1" parent="WIyWlLk6GJQsqaUBKTNV-0" />
        <mxCell id="v-lYcD13ATG6zVw5KtQD-14" style="edgeStyle=orthogonalEdgeStyle;rounded=0;orthogonalLoop=1;jettySize=auto;html=1;exitX=1;exitY=0.5;exitDx=0;exitDy=0;" parent="WIyWlLk6GJQsqaUBKTNV-1" source="v-lYcD13ATG6zVw5KtQD-0" target="v-lYcD13ATG6zVw5KtQD-0" edge="1">
          <mxGeometry relative="1" as="geometry">
            <mxPoint x="496" y="120" as="targetPoint" />
            <Array as="points">
              <mxPoint x="556" y="220" />
              <mxPoint x="576" y="220" />
              <mxPoint x="576" y="160" />
              <mxPoint x="496" y="160" />
            </Array>
          </mxGeometry>
        </mxCell>
        <mxCell id="v-lYcD13ATG6zVw5KtQD-33" style="rounded=0;orthogonalLoop=1;jettySize=auto;html=1;exitX=0.5;exitY=1;exitDx=0;exitDy=0;entryX=0.5;entryY=0;entryDx=0;entryDy=0;" parent="WIyWlLk6GJQsqaUBKTNV-1" source="v-lYcD13ATG6zVw5KtQD-0" target="v-lYcD13ATG6zVw5KtQD-6" edge="1">
          <mxGeometry relative="1" as="geometry" />
        </mxCell>
        <mxCell id="v-lYcD13ATG6zVw5KtQD-35" style="edgeStyle=none;rounded=0;orthogonalLoop=1;jettySize=auto;html=1;entryX=0.5;entryY=0;entryDx=0;entryDy=0;" parent="WIyWlLk6GJQsqaUBKTNV-1" source="v-lYcD13ATG6zVw5KtQD-0" target="v-lYcD13ATG6zVw5KtQD-2" edge="1">
          <mxGeometry relative="1" as="geometry" />
        </mxCell>
        <mxCell id="v-lYcD13ATG6zVw5KtQD-36" style="edgeStyle=none;rounded=0;orthogonalLoop=1;jettySize=auto;html=1;exitX=0.5;exitY=1;exitDx=0;exitDy=0;entryX=0.5;entryY=0;entryDx=0;entryDy=0;" parent="WIyWlLk6GJQsqaUBKTNV-1" source="v-lYcD13ATG6zVw5KtQD-0" target="v-lYcD13ATG6zVw5KtQD-3" edge="1">
          <mxGeometry relative="1" as="geometry" />
        </mxCell>
        <mxCell id="v-lYcD13ATG6zVw5KtQD-37" style="edgeStyle=orthogonalEdgeStyle;rounded=0;orthogonalLoop=1;jettySize=auto;html=1;entryX=1;entryY=0.5;entryDx=0;entryDy=0;" parent="WIyWlLk6GJQsqaUBKTNV-1" source="v-lYcD13ATG6zVw5KtQD-0" target="v-lYcD13ATG6zVw5KtQD-8" edge="1">
          <mxGeometry relative="1" as="geometry">
            <mxPoint x="786" y="520" as="targetPoint" />
            <Array as="points">
              <mxPoint x="786" y="230" />
              <mxPoint x="786" y="510" />
            </Array>
          </mxGeometry>
        </mxCell>
        <mxCell id="v-lYcD13ATG6zVw5KtQD-0" value="网关&lt;br&gt;common-gateway" style="rounded=1;whiteSpace=wrap;html=1;fillColor=#1ba1e2;strokeColor=#006EAF;fontColor=#ffffff;" parent="WIyWlLk6GJQsqaUBKTNV-1" vertex="1">
          <mxGeometry x="436" y="200" width="120" height="60" as="geometry" />
        </mxCell>
        <mxCell id="v-lYcD13ATG6zVw5KtQD-19" style="edgeStyle=orthogonalEdgeStyle;rounded=0;orthogonalLoop=1;jettySize=auto;html=1;entryX=0;entryY=0.5;entryDx=0;entryDy=0;" parent="WIyWlLk6GJQsqaUBKTNV-1" source="v-lYcD13ATG6zVw5KtQD-10" target="v-lYcD13ATG6zVw5KtQD-0" edge="1">
          <mxGeometry relative="1" as="geometry" />
        </mxCell>
        <mxCell id="v-lYcD13ATG6zVw5KtQD-25" style="edgeStyle=orthogonalEdgeStyle;rounded=0;orthogonalLoop=1;jettySize=auto;html=1;entryX=0;entryY=0.5;entryDx=0;entryDy=0;" parent="WIyWlLk6GJQsqaUBKTNV-1" source="v-lYcD13ATG6zVw5KtQD-10" target="v-lYcD13ATG6zVw5KtQD-8" edge="1">
          <mxGeometry relative="1" as="geometry">
            <mxPoint x="76" y="630" as="targetPoint" />
            <Array as="points">
              <mxPoint x="106" y="230" />
              <mxPoint x="106" y="510" />
            </Array>
          </mxGeometry>
        </mxCell>
        <mxCell id="v-lYcD13ATG6zVw5KtQD-10" value="运营平台&lt;br&gt;common-operation" style="rounded=1;whiteSpace=wrap;html=1;fillColor=#1ba1e2;strokeColor=#006EAF;fontColor=#ffffff;" parent="WIyWlLk6GJQsqaUBKTNV-1" vertex="1">
          <mxGeometry x="146" y="200" width="120" height="60" as="geometry" />
        </mxCell>
        <mxCell id="v-lYcD13ATG6zVw5KtQD-4" value="" style="edgeStyle=orthogonalEdgeStyle;rounded=0;orthogonalLoop=1;jettySize=auto;html=1;" parent="WIyWlLk6GJQsqaUBKTNV-1" source="v-lYcD13ATG6zVw5KtQD-2" target="v-lYcD13ATG6zVw5KtQD-3" edge="1">
          <mxGeometry relative="1" as="geometry" />
        </mxCell>
        <mxCell id="v-lYcD13ATG6zVw5KtQD-7" value="" style="edgeStyle=orthogonalEdgeStyle;rounded=0;orthogonalLoop=1;jettySize=auto;html=1;" parent="WIyWlLk6GJQsqaUBKTNV-1" source="v-lYcD13ATG6zVw5KtQD-2" target="v-lYcD13ATG6zVw5KtQD-6" edge="1">
          <mxGeometry relative="1" as="geometry" />
        </mxCell>
        <mxCell id="v-lYcD13ATG6zVw5KtQD-9" value="" style="edgeStyle=orthogonalEdgeStyle;rounded=0;orthogonalLoop=1;jettySize=auto;html=1;" parent="WIyWlLk6GJQsqaUBKTNV-1" source="v-lYcD13ATG6zVw5KtQD-2" target="v-lYcD13ATG6zVw5KtQD-8" edge="1">
          <mxGeometry relative="1" as="geometry" />
        </mxCell>
        <mxCell id="v-lYcD13ATG6zVw5KtQD-2" value="业务服务（TBD）&lt;br&gt;business-sales" style="rounded=1;whiteSpace=wrap;html=1;fillColor=#1ba1e2;strokeColor=#006EAF;fontColor=#ffffff;" parent="WIyWlLk6GJQsqaUBKTNV-1" vertex="1">
          <mxGeometry x="436" y="340" width="120" height="60" as="geometry" />
        </mxCell>
        <mxCell id="v-lYcD13ATG6zVw5KtQD-8" value="用户服务&lt;br&gt;common-user" style="rounded=1;whiteSpace=wrap;html=1;fillColor=#1ba1e2;strokeColor=#006EAF;fontColor=#ffffff;" parent="WIyWlLk6GJQsqaUBKTNV-1" vertex="1">
          <mxGeometry x="436" y="480" width="120" height="60" as="geometry" />
        </mxCell>
        <mxCell id="v-lYcD13ATG6zVw5KtQD-49" style="edgeStyle=orthogonalEdgeStyle;rounded=0;orthogonalLoop=1;jettySize=auto;html=1;entryX=0;entryY=0.25;entryDx=0;entryDy=0;fontColor=#FF3333;" parent="WIyWlLk6GJQsqaUBKTNV-1" source="v-lYcD13ATG6zVw5KtQD-6" target="v-lYcD13ATG6zVw5KtQD-8" edge="1">
          <mxGeometry relative="1" as="geometry">
            <Array as="points">
              <mxPoint x="246" y="495" />
            </Array>
          </mxGeometry>
        </mxCell>
        <mxCell id="v-lYcD13ATG6zVw5KtQD-6" value="业务服务（TBD）&lt;br&gt;business-customer" style="rounded=1;whiteSpace=wrap;html=1;fillColor=#1ba1e2;strokeColor=#006EAF;fontColor=#ffffff;" parent="WIyWlLk6GJQsqaUBKTNV-1" vertex="1">
          <mxGeometry x="186" y="340" width="120" height="60" as="geometry" />
        </mxCell>
        <mxCell id="v-lYcD13ATG6zVw5KtQD-53" style="edgeStyle=none;rounded=0;orthogonalLoop=1;jettySize=auto;html=1;entryX=1;entryY=0.25;entryDx=0;entryDy=0;fontColor=#FF3333;" parent="WIyWlLk6GJQsqaUBKTNV-1" source="v-lYcD13ATG6zVw5KtQD-3" target="v-lYcD13ATG6zVw5KtQD-8" edge="1">
          <mxGeometry relative="1" as="geometry" />
        </mxCell>
        <mxCell id="v-lYcD13ATG6zVw5KtQD-3" value="业务服务（TBD）&lt;br&gt;business-dealer" style="rounded=1;whiteSpace=wrap;html=1;fillColor=#1ba1e2;strokeColor=#006EAF;fontColor=#ffffff;" parent="WIyWlLk6GJQsqaUBKTNV-1" vertex="1">
          <mxGeometry x="636" y="340" width="120" height="60" as="geometry" />
        </mxCell>
        <mxCell id="v-lYcD13ATG6zVw5KtQD-15" value="token校验" style="text;html=1;align=center;verticalAlign=middle;resizable=0;points=[];autosize=1;" parent="WIyWlLk6GJQsqaUBKTNV-1" vertex="1">
          <mxGeometry x="576" y="150" width="70" height="20" as="geometry" />
        </mxCell>
        <mxCell id="v-lYcD13ATG6zVw5KtQD-16" value="限流校验" style="text;html=1;align=center;verticalAlign=middle;resizable=0;points=[];autosize=1;" parent="WIyWlLk6GJQsqaUBKTNV-1" vertex="1">
          <mxGeometry x="581" y="170" width="60" height="20" as="geometry" />
        </mxCell>
        <mxCell id="v-lYcD13ATG6zVw5KtQD-17" value="权限校验" style="text;html=1;align=center;verticalAlign=middle;resizable=0;points=[];autosize=1;" parent="WIyWlLk6GJQsqaUBKTNV-1" vertex="1">
          <mxGeometry x="581" y="190" width="60" height="20" as="geometry" />
        </mxCell>
        <mxCell id="v-lYcD13ATG6zVw5KtQD-18" value="日志记录" style="text;html=1;align=center;verticalAlign=middle;resizable=0;points=[];autosize=1;" parent="WIyWlLk6GJQsqaUBKTNV-1" vertex="1">
          <mxGeometry x="581" y="210" width="60" height="20" as="geometry" />
        </mxCell>
        <mxCell id="v-lYcD13ATG6zVw5KtQD-22" value="策略下发" style="text;html=1;align=center;verticalAlign=middle;resizable=0;points=[];autosize=1;" parent="WIyWlLk6GJQsqaUBKTNV-1" vertex="1">
          <mxGeometry x="317.01" y="191" width="60" height="20" as="geometry" />
        </mxCell>
        <mxCell id="v-lYcD13ATG6zVw5KtQD-23" value="路由管理" style="text;html=1;align=center;verticalAlign=middle;resizable=0;points=[];autosize=1;" parent="WIyWlLk6GJQsqaUBKTNV-1" vertex="1">
          <mxGeometry x="318.01" y="210" width="60" height="20" as="geometry" />
        </mxCell>
        <mxCell id="v-lYcD13ATG6zVw5KtQD-26" value="用户查询" style="text;html=1;align=center;verticalAlign=middle;resizable=0;points=[];autosize=1;" parent="WIyWlLk6GJQsqaUBKTNV-1" vertex="1">
          <mxGeometry x="25" y="303" width="60" height="20" as="geometry" />
        </mxCell>
        <mxCell id="v-lYcD13ATG6zVw5KtQD-29" value="组织查询" style="text;html=1;align=center;verticalAlign=middle;resizable=0;points=[];autosize=1;" parent="WIyWlLk6GJQsqaUBKTNV-1" vertex="1">
          <mxGeometry x="25" y="320" width="60" height="20" as="geometry" />
        </mxCell>
        <mxCell id="v-lYcD13ATG6zVw5KtQD-30" value="权限查询" style="text;html=1;align=center;verticalAlign=middle;resizable=0;points=[];autosize=1;" parent="WIyWlLk6GJQsqaUBKTNV-1" vertex="1">
          <mxGeometry x="25" y="340" width="60" height="20" as="geometry" />
        </mxCell>
        <mxCell id="v-lYcD13ATG6zVw5KtQD-31" value="数据管理" style="text;html=1;align=center;verticalAlign=middle;resizable=0;points=[];autosize=1;" parent="WIyWlLk6GJQsqaUBKTNV-1" vertex="1">
          <mxGeometry x="25" y="360" width="60" height="20" as="geometry" />
        </mxCell>
        <mxCell id="v-lYcD13ATG6zVw5KtQD-38" value="1⃣️ Token生成" style="text;html=1;align=center;verticalAlign=middle;resizable=0;points=[];autosize=1;fontColor=#FF3333;" parent="WIyWlLk6GJQsqaUBKTNV-1" vertex="1">
          <mxGeometry x="568" y="523" width="90" height="20" as="geometry" />
        </mxCell>
        <mxCell id="v-lYcD13ATG6zVw5KtQD-39" value="2⃣️密钥对" style="text;html=1;align=center;verticalAlign=middle;resizable=0;points=[];autosize=1;fontColor=#FF3333;" parent="WIyWlLk6GJQsqaUBKTNV-1" vertex="1">
          <mxGeometry x="696" y="260" width="60" height="20" as="geometry" />
        </mxCell>
        <mxCell id="v-lYcD13ATG6zVw5KtQD-40" value="&lt;font color=&quot;#000000&quot;&gt;共钥获取&lt;/font&gt;" style="text;html=1;align=center;verticalAlign=middle;resizable=0;points=[];autosize=1;fontColor=#FF3333;" parent="WIyWlLk6GJQsqaUBKTNV-1" vertex="1">
          <mxGeometry x="696" y="240" width="60" height="20" as="geometry" />
        </mxCell>
        <mxCell id="v-lYcD13ATG6zVw5KtQD-43" value="3⃣️数据管理" style="text;html=1;align=center;verticalAlign=middle;resizable=0;points=[];autosize=1;fontColor=#FF3333;" parent="WIyWlLk6GJQsqaUBKTNV-1" vertex="1">
          <mxGeometry x="16" y="389" width="80" height="20" as="geometry" />
        </mxCell>
        <mxCell id="v-lYcD13ATG6zVw5KtQD-44" value="4⃣️服务间鉴权" style="text;html=1;align=center;verticalAlign=middle;resizable=0;points=[];autosize=1;fontColor=#FF3333;" parent="WIyWlLk6GJQsqaUBKTNV-1" vertex="1">
          <mxGeometry x="551" y="380" width="90" height="20" as="geometry" />
        </mxCell>
        <mxCell id="v-lYcD13ATG6zVw5KtQD-47" value="&lt;font color=&quot;#000000&quot;&gt;数据查询&lt;/font&gt;" style="text;html=1;align=center;verticalAlign=middle;resizable=0;points=[];autosize=1;fontColor=#FF3333;" parent="WIyWlLk6GJQsqaUBKTNV-1" vertex="1">
          <mxGeometry x="566" y="350" width="60" height="20" as="geometry" />
        </mxCell>
        <mxCell id="v-lYcD13ATG6zVw5KtQD-48" value="&lt;font color=&quot;#000000&quot;&gt;请求转发&lt;/font&gt;" style="text;html=1;align=center;verticalAlign=middle;resizable=0;points=[];autosize=1;fontColor=#FF3333;" parent="WIyWlLk6GJQsqaUBKTNV-1" vertex="1">
          <mxGeometry x="317.01" y="280" width="60" height="20" as="geometry" />
        </mxCell>
        <mxCell id="v-lYcD13ATG6zVw5KtQD-50" value="用户查询" style="text;html=1;align=center;verticalAlign=middle;resizable=0;points=[];autosize=1;" parent="WIyWlLk6GJQsqaUBKTNV-1" vertex="1">
          <mxGeometry x="246" y="423" width="60" height="20" as="geometry" />
        </mxCell>
        <mxCell id="v-lYcD13ATG6zVw5KtQD-51" value="权限查询" style="text;html=1;align=center;verticalAlign=middle;resizable=0;points=[];autosize=1;" parent="WIyWlLk6GJQsqaUBKTNV-1" vertex="1">
          <mxGeometry x="246" y="440" width="60" height="20" as="geometry" />
        </mxCell>
        <mxCell id="v-lYcD13ATG6zVw5KtQD-52" value="数据查询" style="text;html=1;align=center;verticalAlign=middle;resizable=0;points=[];autosize=1;" parent="WIyWlLk6GJQsqaUBKTNV-1" vertex="1">
          <mxGeometry x="246" y="460" width="60" height="20" as="geometry" />
        </mxCell>
        <mxCell id="v-lYcD13ATG6zVw5KtQD-54" value="Token申请" style="text;html=1;align=center;verticalAlign=middle;resizable=0;points=[];autosize=1;" parent="WIyWlLk6GJQsqaUBKTNV-1" vertex="1">
          <mxGeometry x="491" y="414.5" width="70" height="20" as="geometry" />
        </mxCell>
        <mxCell id="v-lYcD13ATG6zVw5KtQD-55" value="Token颁发" style="text;html=1;align=center;verticalAlign=middle;resizable=0;points=[];autosize=1;" parent="WIyWlLk6GJQsqaUBKTNV-1" vertex="1">
          <mxGeometry x="491" y="431.5" width="70" height="20" as="geometry" />
        </mxCell>
        <mxCell id="v-lYcD13ATG6zVw5KtQD-59" value="组织查询" style="text;html=1;align=center;verticalAlign=middle;resizable=0;points=[];autosize=1;" parent="WIyWlLk6GJQsqaUBKTNV-1" vertex="1">
          <mxGeometry x="621" y="431.5" width="60" height="20" as="geometry" />
        </mxCell>
        <mxCell id="v-lYcD13ATG6zVw5KtQD-60" value="数据管理" style="text;html=1;align=center;verticalAlign=middle;resizable=0;points=[];autosize=1;" parent="WIyWlLk6GJQsqaUBKTNV-1" vertex="1">
          <mxGeometry x="621" y="448.5" width="60" height="20" as="geometry" />
        </mxCell>
      </root>
    </mxGraphModel>
  </diagram>
</mxfile>
